HIERARCHY
ROOT Hips
{
     OFFSET 1.88212 96.90440 -13.34250
     CHANNELS 6 Xposition Yposition Zposition Zrotation Xrotation Yrotation
     JOINT Spine
     {
          OFFSET 0.00000 11.89050 0.00000
          CHANNELS 3 Zrotation Xrotation Yrotation
          JOINT Spine1
          {
               OFFSET -0.00000 25.65740 0.12766
               CHANNELS 3 Zrotation Xrotation Yrotation
               JOINT HEad
               {
                    OFFSET 0.00000 8.73416 0.01134
                    CHANNELS 3 Zrotation Xrotation Yrotation
                    End Site
                    {
                         OFFSET -0.29000 12.77420 2.51395
                    }
               }
               JOINT LeftShoulder1
               {
                    OFFSET 8.99000 -0.36225 -0.22000
                    CHANNELS 3 Zrotation Xrotation Yrotation
                    JOINT LeftArm
                    {
                         OFFSET 10.28270 -0.00338 0.32212
                         CHANNELS 3 Zrotation Xrotation Yrotation
                         JOINT LeftForeArm
                         {
                              OFFSET 32.76690 0.09914 -1.42434
                              CHANNELS 3 Zrotation Xrotation Yrotation
                              JOINT LeftHand
                              {
                                   OFFSET 27.56430 0.08536 1.02216
                                   CHANNELS 3 Zrotation Xrotation Yrotation
                                   End Site
                                   {
                                        OFFSET 16.74430 -0.60000 1.50291
                                   }
                              }
                         }
                    }
               }
               JOINT RightShoulder
               {
                    OFFSET -8.99000 -0.36225 -0.22000
                    CHANNELS 3 Zrotation Xrotation Yrotation
                    JOINT RightArm
                    {
                         OFFSET -10.28270 -0.00338 0.32212
                         CHANNELS 3 Zrotation Xrotation Yrotation
                         JOINT RightForeArm
                         {
                              OFFSET -32.89710 0.09914 -1.42434
                              CHANNELS 3 Zrotation Xrotation Yrotation
                              JOINT RightHand
                              {
                                   OFFSET -27.49210 0.08536 1.02216
                                   CHANNELS 3 Zrotation Xrotation Yrotation
                                   End Site
                                   {
                                        OFFSET -16.63120 -0.60000 1.50291
                                   }
                              }
                         }
                    }
               }
          }
     }
     JOINT LeftUpLeg
     {
          OFFSET 8.94580 -8.66707 0.10165
          CHANNELS 3 Zrotation Xrotation Yrotation
          JOINT LeftLeg
          {
               OFFSET 0.00000 -44.42270 1.37270
               CHANNELS 3 Zrotation Xrotation Yrotation
               JOINT LeftFoot
               {
                    OFFSET -0.25355 -42.09240 -1.46059
                    CHANNELS 3 Zrotation Xrotation Yrotation
                    JOINT LeftToes
                    {
                         OFFSET -0.04000 -4.41509 8.49910
                         CHANNELS 3 Zrotation Xrotation Yrotation
                         End Site
                         {
                              OFFSET 0.08000 -0.04745 9.77979
                         }
                    }
               }
          }
     }
     JOINT RightUpLeg
     {
          OFFSET -8.94580 -8.66707 0.10165
          CHANNELS 3 Zrotation Xrotation Yrotation
          JOINT RightLeg
          {
               OFFSET 0.00000 -44.42270 1.37270
               CHANNELS 3 Zrotation Xrotation Yrotation
               JOINT RightFoot
               {
                    OFFSET 0.25355 -42.09240 -1.46059
                    CHANNELS 3 Zrotation Xrotation Yrotation
                    JOINT RightToes
                    {
                         OFFSET 0.04000 -4.41509 8.49910
                         CHANNELS 3 Zrotation Xrotation Yrotation
                         End Site
                         {
                              OFFSET -0.08000 -0.13745 9.77979
                         }
                    }
               }
          }
     }
}
MOTION
Frames: 18
Frame Time: 0.01667
60.75198 91.02209 -19.35300 5.39442 12.54051 165.01367 1.86736 22.76630 -22.62647 -0.01568 0.00464 0.07019 6.25972 9.39578 -5.19656 -10.11072 3.64482 44.59169 -102.77578 -28.92283 -86.39747 -59.47065 61.89886 -66.50196 26.63853 9.27270 -21.90583 -7.66095 2.84996 34.82407 112.92249 -41.92828 79.21466 -8.07416 42.23741 130.38992 47.12575 11.82685 -41.24757 9.34994 -15.36607 -11.10064 -13.12796 9.46653 46.25648 20.46989 -0.17441 0.04876 -16.21785 0.54953 -76.51325 -28.54656 11.34157 -1.44154 50.09528 51.03675 -25.10617 -28.16934 0.00028 -0.02517 8.06139 -46.46177 13.36986 
60.93275 90.46513 -19.03576 3.29375 14.31811 171.68181 1.89409 24.82959 -22.63409 -0.01633 0.00570 0.05744 6.82377 6.17998 -6.16849 -9.12786 4.07257 40.13326 -106.25731 -37.32224 -87.15373 -54.88390 60.87684 -71.61111 17.93829 -2.51949 -18.01015 -14.53837 -2.78932 38.19188 115.61475 -43.56832 84.17163 -22.47761 33.71640 123.28429 43.02024 9.49670 -48.19942 5.57769 -14.86838 -13.54206 -13.44248 8.85707 46.73903 23.87922 -0.13018 0.04758 -18.26446 0.79937 -79.84774 -28.21429 13.39969 -2.18903 52.37478 49.79174 -29.95269 -27.58869 0.00640 -0.01968 5.98840 -47.36909 9.80968 
61.16083 89.88992 -18.67693 1.31031 15.73744 177.44193 1.94725 26.67062 -20.76069 -0.01686 0.00748 0.04712 6.92859 2.68246 -7.10056 -7.92091 4.77636 34.45393 -109.67146 -45.88337 -88.33995 -58.36617 61.26711 -72.47910 28.19559 11.10865 -17.77466 -21.74712 -7.99391 39.92973 116.71790 -45.49599 87.43056 -34.55853 29.14897 109.67200 38.98812 -12.93622 -37.22487 2.45906 -14.19945 -15.26203 -13.82173 8.51064 46.83495 26.94640 -0.09461 0.04006 -20.12344 0.92310 -82.41951 -27.63881 14.93251 -1.40085 54.89048 47.56009 -36.01508 -27.16887 0.01136 -0.01323 6.36814 -48.11914 10.76763 
61.46043 89.30145 -18.31159 -0.49946 16.87083 182.34106 1.88485 28.26910 -17.16861 -0.01780 0.00827 0.03857 6.77223 -0.48478 -9.50876 -6.57423 5.55380 27.87573 -112.03365 -50.31195 -89.24794 -61.29449 61.98185 -71.92125 22.14683 2.68437 -16.48552 -29.46638 -12.27512 40.29693 116.55775 -47.55508 89.04136 -40.05735 29.22399 90.02649 34.10573 2.03066 -26.79913 -0.02237 -13.52116 -16.33318 -14.22008 8.44295 46.62577 29.60702 -0.06596 0.03081 -21.80465 0.99123 -84.32429 -27.05880 16.25046 -0.31010 56.75752 45.32889 -41.60918 -26.70167 0.01224 -0.00758 6.54323 -49.06221 10.77724 
61.83826 88.70464 -17.97595 -2.10242 17.77467 186.45790 1.54876 29.62521 -12.01479 -0.02600 0.01354 0.03367 6.42601 -3.26425 -13.25374 -5.09323 6.30787 20.58582 -113.21471 -52.09663 -89.66172 -63.43063 62.61111 -70.77170 24.40626 4.93164 -17.92502 -30.78583 -8.63351 32.68549 104.44504 -40.89631 87.26762 -37.15875 28.62086 66.50627 40.09350 -21.69989 -20.59287 -1.92582 -12.93900 -16.86342 -14.60189 8.65897 46.19051 31.82970 -0.04405 0.02218 -23.31441 1.04672 -85.63451 -26.48359 17.39240 1.00581 58.17155 43.19246 -46.66816 -26.27267 0.01125 -0.00215 7.54155 -49.93112 12.13113 
62.29154 88.11098 -17.69751 -3.48493 18.49314 189.87968 0.79849 30.72407 -5.48872 -0.03223 0.02073 0.02726 5.99002 -5.62606 -18.13439 -3.37621 7.03867 12.51635 -113.59744 -52.31716 -89.79828 -64.73072 63.10694 -69.46182 21.43727 1.08253 -17.21040 -31.13060 -4.11951 24.42830 92.90530 -34.00433 87.30737 -31.35228 21.53419 43.32217 32.60493 -4.61761 -20.06922 -3.33224 -12.50640 -16.96237 -14.94996 9.14803 45.60287 33.62069 -0.02817 0.01547 -24.64437 1.09974 -86.45428 -25.91076 18.38449 2.47158 59.26559 41.19041 -51.11958 -25.88563 0.00946 0.00217 8.72458 -50.82293 13.41107 
62.81889 87.53914 -17.49785 -4.65157 19.05859 192.68394 -0.55414 31.60332 2.09765 -0.04099 0.03854 0.01655 5.66982 -7.66749 -23.76322 -1.23412 7.62154 3.85701 -113.60958 -51.64300 -89.95132 -65.31419 63.40098 -68.16937 22.83043 2.98297 -17.86026 -29.83775 0.94057 15.72997 80.73482 -27.75823 87.78822 -30.51813 12.04927 26.54825 35.65454 -2.98478 -16.40374 -4.32534 -12.24084 -16.72020 -15.26340 9.88739 44.92845 35.01082 -0.01708 0.01079 -25.78927 1.13005 -86.88442 -25.33993 19.24095 4.02488 60.13578 39.33049 -54.92834 -25.54383 0.00795 0.00519 10.18434 -51.63805 15.08661 
63.42326 87.01511 -17.39261 -5.61994 19.49280 194.93114 -2.82551 32.51148 10.01266 -0.05762 0.07111 -0.02231 5.82718 -9.76915 -29.18933 1.49650 7.60557 -4.55577 -113.56457 -50.45024 -90.27172 -65.43126 63.54562 -66.82496 21.28210 0.93106 -17.45767 -26.81182 5.32383 7.04068 72.71339 -23.92309 88.62099 -31.77941 4.72828 17.49750 17.45760 7.35568 -0.19195 -4.97716 -12.13947 -16.20347 -15.54888 10.84632 44.22208 36.03852 -0.00947 0.00757 -26.75436 1.08321 -87.02665 -24.77918 19.96830 5.61805 60.84136 37.61101 -58.10658 -25.23259 0.00742 0.00677 11.71672 -52.40797 16.79466 
64.07788 86.56161 -17.40275 -6.39221 19.80370 196.65866 -4.80001 32.71469 16.53159 0.00330 0.00102 -0.08542 5.70785 -10.96582 -33.42779 3.70632 7.95858 -11.76681 -113.63987 -49.03133 -90.83289 -65.33017 63.55242 -65.32935 22.21918 1.99224 -17.85625 -23.42705 9.14217 -0.28537 70.91967 -22.50871 86.84552 -31.30132 -1.76926 22.76181 14.36266 12.88904 11.35973 -5.33685 -12.19680 -15.46532 -15.80912 11.98938 43.52664 36.74318 -0.00434 0.00523 -27.55648 0.88557 -86.97332 -24.23528 20.56325 7.21216 61.42533 36.02376 -60.69486 -24.90944 0.00779 0.00743 13.25625 -53.05656 18.60297 
64.74526 86.19848 -17.52409 -6.96245 20.00425 197.88980 -7.15490 33.15670 21.01161 -0.01380 0.07048 -0.15733 6.19747 -12.44876 -35.34209 5.90755 7.58947 -16.26587 -113.22901 -43.63030 -89.29058 -59.43061 64.57076 -66.39576 21.29776 0.75406 -17.67273 -19.30359 10.90537 -5.91625 73.62251 -22.88592 84.75211 -27.00654 -5.49285 36.31260 18.10238 12.06197 -6.42653 -5.44136 -12.40018 -14.55344 -16.04438 13.28112 42.87692 37.16465 -0.00102 0.00334 -28.21306 0.48132 -86.79988 -23.72197 21.02122 8.78082 61.92302 34.56528 -62.74073 -24.52822 0.00854 0.00768 14.66424 -53.48030 20.32654 
65.37920 85.94202 -17.74330 -7.31495 20.10693 198.63454 -9.55266 33.74283 23.41193 -0.00028 0.05724 -0.15262 6.98470 -13.83991 -35.17697 7.61658 7.09204 -18.92143 -113.27902 -40.31147 -89.00293 -66.13200 62.79288 -59.49635 21.85495 6.45136 -17.76369 -4.90787 14.75475 -16.71520 73.01159 -21.22144 90.58273 -18.25990 -5.25500 53.30212 10.74885 9.29415 10.19905 -5.31660 -12.74043 -13.51287 -16.25623 14.68486 42.30647 37.34165 0.00094 0.00165 -28.72930 -0.14656 -86.55820 -23.25574 21.32709 10.30752 62.36633 33.24100 -64.28657 -24.04805 0.00938 0.00787 15.79433 -53.52415 21.82797 
65.92849 85.79478 -18.04927 -6.35836 19.65022 196.80206 -11.91278 33.33632 25.71358 0.01973 0.04178 -0.13692 7.95027 -15.05521 -33.14810 8.83031 6.62949 -19.91377 -113.68169 -38.32373 -89.39693 -69.39730 61.32280 -55.59180 21.03666 8.46195 -17.48677 -2.11655 13.44283 -17.70357 80.87675 -23.10821 88.25941 -6.08202 -0.57244 69.32050 25.02974 4.38470 3.02864 -3.74692 -14.06515 -10.66975 -16.45918 16.16348 41.84499 37.30002 0.00166 0.00026 -29.10804 -1.01496 -86.28230 -22.81713 20.33794 12.17453 62.53181 32.81541 -64.48305 -23.54614 0.01063 0.00783 16.48273 -53.07084 22.90725 
66.35328 85.75329 -18.41332 -4.39557 18.73147 192.88222 -13.94294 32.07689 27.69001 0.02286 0.04011 -0.11236 8.76581 -15.31080 -31.04788 10.00995 10.04504 -29.70370 -119.98809 -44.86287 -100.47817 -71.31998 60.44024 -53.33158 17.17765 -7.22683 -17.29157 9.92896 10.00044 -24.63455 80.86066 -19.65553 89.07675 7.31980 8.16565 80.27700 -2.46298 9.71162 4.32066 -0.83331 -16.18753 -7.40316 -17.09284 17.68208 42.71426 37.03002 0.00126 -0.00116 -29.36173 -2.17139 -85.99506 -22.35275 18.16356 14.25398 62.65874 33.19557 -63.80389 -23.14138 0.01283 0.00728 16.63412 -52.14759 23.43296 
66.63362 85.79518 -18.81030 -1.73033 17.37353 187.30003 -15.40516 30.20219 29.19020 0.02827 0.03729 -0.09327 9.31550 -14.76202 -28.96474 10.06893 9.42004 -26.83057 -119.96841 -43.61806 -99.96606 -72.51355 60.12766 -51.83727 19.51137 7.54998 -17.31014 19.97244 5.70536 -29.53870 81.31102 -15.41013 88.47789 16.14453 19.53091 85.33217 22.87327 11.06853 6.93522 3.33546 -18.51300 -3.73865 -18.10579 19.18982 44.76746 36.51868 -0.00010 -0.00326 -29.51448 -3.61542 -85.71658 -21.77489 14.92873 16.44071 64.98165 35.18370 -64.04044 -17.41340 0.08305 0.13220 10.56555 -52.89966 23.08253 
66.80198 85.89137 -19.20325 0.88650 15.75164 181.44305 -16.47023 28.12677 30.35076 0.01221 0.01173 -0.02787 9.67102 -13.95100 -26.97298 11.29354 9.29647 -27.09742 -123.35312 -44.76374 -102.77177 -73.63107 60.03161 -50.53376 18.42377 10.28292 -17.10517 26.74589 3.04973 -31.17164 84.44456 -13.60697 86.56641 24.76227 31.25718 86.97793 37.08030 11.94829 5.71430 8.00883 -20.35196 0.16207 -19.29715 20.72900 47.13845 35.83587 -0.00189 -0.00598 -29.66197 -5.23076 -85.44420 -20.95393 11.34392 18.57947 67.04949 37.20198 -64.23769 -14.48935 0.00071 0.04854 7.18604 -52.95455 22.79144 
66.87993 86.02419 -19.56268 3.42806 13.89615 175.32159 -17.10523 25.93387 31.23444 0.01454 0.00722 -0.02468 9.81431 -12.92983 -24.95707 13.35575 9.46276 -29.28304 -129.77124 -47.31800 -108.37852 -74.86842 60.14582 -49.39374 16.03074 6.79989 -17.01006 31.37167 1.88087 -30.93037 89.12188 -13.83540 83.51748 34.28676 42.67675 85.59735 38.02543 13.82153 2.99176 13.16519 -21.59709 4.27475 -20.65826 22.24897 49.81146 35.01095 -0.00273 -0.00806 -29.79533 -6.93908 -85.24674 -19.90340 7.56487 20.72797 68.62836 38.76831 -64.61927 -13.67613 0.00675 0.01117 5.61073 -52.42384 22.63523 
66.87263 86.18166 -19.87131 5.87068 11.84356 168.95422 -17.30885 23.73376 31.90792 0.01606 0.00584 -0.02405 9.71866 -11.87486 -22.55586 16.12895 9.65566 -32.71247 -139.44011 -50.31609 -116.87379 -76.36109 60.39828 -48.38731 15.05614 5.41264 -16.75175 34.46042 1.85266 -29.63193 94.43582 -15.88003 79.64416 44.35636 52.13795 81.81974 33.50431 17.24487 1.07772 18.71739 -22.12940 8.50332 -22.18060 23.69257 52.77006 34.07473 -0.00318 -0.00927 -29.90112 -8.68293 -85.15540 -18.62922 3.71232 22.92540 70.13472 40.14584 -66.03237 -14.50986 0.01240 -0.02781 2.38024 -49.82877 16.54053 
66.86330 86.83736 -20.11088 7.86361 9.71645 162.98210 -17.23139 21.74721 31.84340 0.01631 0.00290 -0.02380 9.43087 -10.30102 -19.74146 17.35820 9.96964 -32.97882 -146.10854 -51.93288 -122.67750 -74.91035 61.07059 -49.22041 15.33082 9.49853 -12.72329 35.97689 2.78392 -27.11414 98.58140 -17.95134 75.67860 53.01848 58.52993 75.71230 27.42137 19.13664 -2.78604 23.95240 -21.82772 12.13088 -23.64866 25.07238 55.21184 32.70371 -0.00865 -0.00566 -25.52652 -6.96546 -81.08165 -17.04589 0.33447 24.64671 69.09100 40.44703 -65.91707 -15.69809 -0.00964 0.01509 1.83130 -48.70812 9.86926 
